<?xml version="1.0" encoding="UTF-8"?>
<svg width="144px" height="59px" viewBox="0 0 144 59" version="1.1" xmlns="http://www.w3.org/2000/svg" xmlns:xlink="http://www.w3.org/1999/xlink">
    <!-- Generator: Sketch 54.1 (76490) - https://sketchapp.com -->
    <title>Group 28</title>
    <desc>Created with Sketch.</desc>
    <defs>
        <polygon id="path-1" points="0.265479252 0.198987504 31.2102809 0.198987504 31.2102809 46.8433735 0.265479252 46.8433735"></polygon>
        <polygon id="path-3" points="0.86746988 -8.6746988e-05 1.30120482 -8.6746988e-05 1.30120482 2.60232289 0.86746988 2.60232289"></polygon>
        <polygon id="path-5" points="0.281507723 0.00497852279 9.2346069 0.00497852279 9.2346069 9.18453356 0.281507723 9.18453356"></polygon>
    </defs>
    <g id="Symbols" stroke="none" stroke-width="1" fill="none" fill-rule="evenodd">
        <g id="molecule/header" transform="translate(-194.000000, -44.000000)">
            <g id="Group-28" transform="translate(194.000000, 44.000000)">
                <g id="Group-3" transform="translate(61.590361, 12.144578)">
                    <mask id="mask-2" fill="white">
                        <use xlink:href="#path-1"></use>
                    </mask>
                    <g id="Clip-2"></g>
                    <path d="M23.5500092,15.9315957 C23.5289195,12.3530085 21.9743685,9.53952974 19.1386207,8.23366798 C16.2412262,6.89945365 13.4509023,7.23721902 10.969623,9.26134585 C7.49915769,12.0920827 7.10372662,18.2881461 10.0911577,21.8860459 C12.6024492,24.9107308 16.9826088,25.5254473 20.1310513,23.2083439 C22.5454115,21.4319939 23.6404514,18.9509387 23.5500092,15.9315957 M19.8662139,39.416973 C22.5539285,38.143162 23.7759119,36.0454828 23.5293251,33.0113471 C23.4080596,31.5205773 23.5082355,30.0109058 23.5082355,28.1314181 C22.773342,28.4219292 22.1301075,28.5098633 21.7103422,28.8673522 C17.0807568,32.8124682 10.4999726,32.7923338 5.8148241,28.7728436 C-1.20316495,22.7514156 -1.62049682,10.5146115 4.88120119,3.94010298 C9.50024171,-0.730674445 17.6449051,-1.15760659 21.6612682,3.39359696 C22.0339873,3.81600913 22.7275126,3.9470884 23.5175636,4.33416259 L23.5175636,1.01691211 L31.2100161,1.01691211 L31.2100161,3.09445682 C31.2100161,13.2274181 31.2108272,23.3607904 31.2096105,33.4937517 C31.2087994,40.5510757 28.6593843,44.1958189 22.1086122,46.5305912 C22.0145199,46.5642856 21.969096,46.7360446 21.9009602,46.8437022 L8.92270956,46.8437022 L8.92270956,39.8582869 C12.1636221,39.8582869 15.0958956,39.8833522 18.0269524,39.8385633 C18.641797,39.8291125 19.2533971,39.5644885 19.8662139,39.416973" id="Fill-1" fill="#023CFE" mask="url(#mask-2)"></path>
                </g>
                <path d="M0,25.6112795 C0.220744146,25.148153 0.517394736,24.7053926 0.649923284,24.2186414 C2.75478846,16.4892758 10.2252135,12.128066 18.3771553,13.162667 C20.6272685,13.4482006 22.8096813,14.2579591 25.1566265,14.8616122 C24.224003,17.1491394 23.4390893,19.0733343 22.6110936,21.104248 C21.2685753,20.7474328 19.9974501,20.3193361 18.691449,20.0786081 C13.9323201,19.2012338 9.52605359,21.5408985 8.44448934,25.7098517 C7.30548237,30.0991668 8.4178195,35.3377509 14.0701826,37.1527832 C16.4946755,37.9315852 18.347203,37.1144948 20.4372972,36.7462746 C21.0917338,36.6310021 21.6989854,36.2509696 22.5126204,35.9153352 C22.9516469,36.7690847 23.4152916,37.6505322 23.8604727,38.5413481 C24.2814457,39.3836925 24.6827241,40.23622 25.0840025,41.0663448 C18.8526989,46.2902652 4.46576075,45.8621685 0.766449933,33.7231216 C0.558835551,33.0416698 0.257671605,32.387916 0,31.7211279 L0,29.6845118 L0,27.2405724 L0,25.6112795 Z" id="Fill-4" fill="#033CFE"></path>
                <path d="M142.923746,1.79930112 C143.0628,1.77784733 143.20226,1.75639355 143.341314,1.73493976 L143.341314,44.2381303 C143.20592,44.2389399 143.070932,44.2401543 142.935537,44.2409639 C142.931878,30.093608 142.927812,15.9462522 142.923746,1.79930112" id="Fill-6" fill="#2458FE"></path>
                <path d="M81.5421687,51.1807229 C80.9800787,51.3353728 80.4191047,51.6140018 79.8551547,51.6235055 C77.1667204,51.6710236 74.4771701,51.6446726 71.5045288,51.6446726 L71.5045288,58.9879518 L71.1325301,58.9879518 L71.1325301,51.1807229 L81.5421687,51.1807229 Z" id="Fill-8" fill="#0023FE"></path>
                <g id="Group-12" transform="translate(0.000000, 26.891566)">
                    <mask id="mask-4" fill="white">
                        <use xlink:href="#path-3"></use>
                    </mask>
                    <g id="Clip-11"></g>
                    <path d="M0.86746988,-8.6746988e-05 L0.86746988,2.60232289 L0.86746988,-8.6746988e-05 Z" id="Fill-10" fill="#2456FE" mask="url(#mask-4)"></path>
                </g>
                <path d="M136.579028,29.9751553 C136.525157,26.0626507 134.642564,23.0627607 131.545795,21.9624979 C127.431275,20.5005785 123.294377,22.2195841 121.530715,26.1242356 C119.634033,30.321519 121.055819,35.5256545 124.709119,37.5918504 C127.309443,39.0624496 129.984772,39.131061 132.574322,37.6087966 C135.46265,35.9108704 136.613423,33.2333715 136.579028,29.9751553 L136.579028,29.9751553 Z M143.987983,1.73493976 C143.992127,16.1805385 143.995856,30.6257239 144,45.0713227 L136.637457,45.0713227 C136.57074,44.2037601 136.504437,43.3440506 136.412856,42.156577 C135.792508,42.3979569 135.19205,42.4773147 134.805006,42.8059056 C130.202329,46.7138637 124.402882,47.037908 119.450042,43.6147765 C115.711791,41.0306882 113.695763,37.3417907 113.030246,32.9779386 C112.291381,28.1321532 113.078316,23.5364275 116.090547,19.475127 C120.270542,13.8394835 127.967915,12.3110193 133.277963,16.1201935 C133.997766,16.6364325 134.585377,17.3337065 135.293162,17.8701982 C135.517764,18.0404868 135.932573,17.9607157 136.450151,18.0156875 L136.450151,1.73493976 L143.987983,1.73493976 Z" id="Fill-13" fill="#023BFE"></path>
                <path d="M49.7242376,25.9095051 C49.3865963,22.1719863 46.9475463,19.7030293 43.2740577,19.3817324 C39.8753748,19.0845431 36.6759361,21.2475822 35.797035,24.4958817 C35.6721594,24.9568368 35.8097611,25.4951027 35.8256688,25.9976227 C36.1104169,26.1302148 36.3943696,26.3766949 36.6795153,26.3783575 C40.6978036,26.4032965 44.7164895,26.4066216 48.7347778,26.3737853 C49.0656582,26.3712915 49.3945502,26.0711926 49.7242376,25.9095051 M56.8930483,30.631697 C50.541894,30.6707681 44.1899443,30.7098391 37.8387899,30.7480789 C37.1185682,30.7522353 36.3987442,30.7484945 35.6932371,30.7484945 C35.4216129,33.820143 36.8111516,36.3198581 39.3643396,37.5335541 C42.736377,39.1367135 46.7984115,38.0190325 49.7512807,34.6053046 C51.8061595,35.09203 53.9194991,35.5924717 56.1716336,36.1261655 C55.3997118,38.7435093 53.9715969,40.7519268 51.9377958,42.2599026 C45.1074216,47.324174 33.5293905,45.7800367 29.3357197,36.4674136 C25.8018213,28.6199543 28.1203704,17.585296 37.1829944,14.1142085 C46.8389761,10.4161764 57.3321012,16.1932864 57.2525627,28.9017645 C57.1328571,29.4782702 57.0131516,30.0551914 56.8930483,30.631697" id="Fill-15" fill="#053DFE"></path>
                <path d="M107.541945,43.7915474 C104.994291,43.9386292 102.446638,44.0857109 99.7590361,44.2409639 L99.7590361,14.746988 C102.391171,14.9104121 104.978504,15.0709764 107.566265,15.2315406 C107.451064,15.7401983 107.237302,16.2484475 107.236022,16.7575137 C107.215541,25.2559788 107.215968,33.7544438 107.235168,42.2525003 C107.236448,42.7656522 107.435277,43.2788041 107.541945,43.7915474" id="Fill-17" fill="#073FFE"></path>
                <g id="Group-21" transform="translate(98.891566, 0.000000)">
                    <mask id="mask-6" fill="white">
                        <use xlink:href="#path-5"></use>
                    </mask>
                    <g id="Clip-20"></g>
                    <path d="M9.23447349,4.65935799 C9.21538916,7.35190906 7.28628072,9.24250309 4.61924458,9.18317569 C2.05637711,9.12675244 0.289883133,7.2506791 0.281533735,4.57721236 C0.273184337,1.91453243 2.27584699,-0.0698237821 4.89278675,0.00692844421 C7.38846145,0.0803616553 9.25276265,2.07799392 9.23447349,4.65935799" id="Fill-19" fill="#033BFE" mask="url(#mask-6)"></path>
                </g>
                <path d="M107.707733,42.5060241 C107.606086,42.0076608 107.416615,41.5089003 107.415395,41.0101399 C107.397099,32.750413 107.396692,24.4902889 107.416208,16.2301649 C107.417428,15.7353755 107.621129,15.2413803 107.730909,14.746988 C107.723183,23.9998676 107.715458,33.2531444 107.707733,42.5060241" id="Fill-22" fill="#0022FE"></path>
                <path d="M57.0694369,31.2289157 C57.1918203,30.6507414 57.3146104,30.0725671 57.4365872,29.4939759 C57.3142038,30.0725671 57.1918203,30.6507414 57.0694369,31.2289157" id="Fill-24" fill="#0030FE"></path>
            </g>
        </g>
    </g>
</svg>
